# xmcd
#
# Track frame offsets:
#	150
#	5577
#	17967
#	32992
#	54197
#	65737
#	80690
#	97062
#	110152
#	127187
#	131817
#	142577
#	152395
#	165825
#	187180
#	197912
#	212175
#	233027
#	250565
#	258180
#	277487
#	297927
#	313470
#
# Disc length: 4428 seconds
#
# Revision: 1
# Processed by: cddbd v1.5.1PL0 Copyright (c) Steve Scherf et al.
# Submitted via: CDex 1.50Beta5
#
DISCID=5f114a17
DTITLE=瀧見憲司 - The DJ At The Gates Of Dawn
DYEAR=2003
DGENRE=Electronic
TTITLE0=The Underneath/Fire
TTITLE1=Tones On Tail/Now We Lustre
TTITLE2=Freaks/Discorobot(Rob's No Ears Dub)
TTITLE3=Saro&Black/We Were There(118 Street Mix)
TTITLE4=S.W.A.T./Get With Dis Groove
TTITLE5=The Cult/Assault On Sanctuary
TTITLE6=Librodisia/Got To Be real(Force Of Nature's 2years Wated Remix)
TTITLE7=The Mephisto Odyssey/The Motive
TTITLE8=Nector/Duality
TTITLE9=Big200/Drum Spell
TTITLE10=Sweet Smoke
TTITLE11=IDJut Boys/Turntable Turbulance
TTITLE12=Bulb/Reflection
TTITLE13=Metro Area/Miura
TTITLE14=Nickodemus/Cleopatra In nework(Madrid De Ios Austrias Remix)
TTITLE15=Sly Mongoose/Snakes And ladder(Original)
TTITLE16=Doc Martin And Tony Hewitt/Lack Of Dub
TTITLE17=Ray Mang/Urchestral Maneuvers
TTITLE18=Rosebud/Interstella Overdrive
TTITLE19=Peter Black(Maxfactor)/Trash(Disco Theme)
TTITLE20=DJ Garth And Markie Mark/Anthem#1
TTITLE21=Khan Featuring Julee Cruise/Say goodbye(Losoul"she's Homeless"Mix)
TTITLE22=The Underneath/Fire
EXTD=
EXTT0=
EXTT1=
EXTT2=
EXTT3=
EXTT4=
EXTT5=
EXTT6=
EXTT7=
EXTT8=
EXTT9=
EXTT10=
EXTT11=
EXTT12=
EXTT13=
EXTT14=
EXTT15=
EXTT16=
EXTT17=
EXTT18=
EXTT19=
EXTT20=
EXTT21=
EXTT22=
PLAYORDER=
